<?xml version="1.0" encoding="utf-8"?>
<!-- Generator: Adobe Illustrator 24.0.1, SVG Export Plug-In . SVG Version: 6.00 Build 0)  -->
<svg version="1.1" id="圖層_1" xmlns="http://www.w3.org/2000/svg" xmlns:xlink="http://www.w3.org/1999/xlink" x="0px" y="0px"
	 viewBox="0 0 575.3 168" style="enable-background:new 0 0 575.3 168;" xml:space="preserve">
<style type="text/css">
	.st0{fill:#003B83;}
	.st1{fill:#FFFFFF;}
	.st2{fill:#E68C95;}
	.st3{fill:#FFE776;}
</style>
<title>logo</title>
<g>
	<g id="圖層_1_1_">
		
			<image style="overflow:visible;opacity:0.75;enable-background:new    ;" width="2448" height="763" xlink:href="BC195879DF675634.png"  transform="matrix(0.24 0 0 0.24 -5.81 -5.92)">
		</image>
		<path class="st0" d="M561.7,93c-0.1-2.7-1.7-5.1-4.1-6.3l-1.5-0.8c2.1-1.4,3.4-3.7,3.4-6.3v-13c0-4.1-3.3-7.5-7.5-7.5c0,0,0,0,0,0
			h-27.3c-1-3.1-3.9-5.3-7.2-5.3h-18c-3.3,0-6.2,2.1-7.2,5.3h-26.5c-1.2,0-2.5,0.3-3.6,0.9c-0.9-0.3-1.8-0.5-2.7-0.5h-9
			c0-0.1-0.1-0.2-0.2-0.3c-1.2-2.2-3.5-3.6-6-3.8L426.3,54c-3-0.2-5.9,1.4-7.3,4.1l-0.7,1.4H418l-1.4-2c-1.4-2.1-3.8-3.2-6.4-3.2
			l-17.5,0.5c-2.7,0.1-5.2,1.6-6.4,4.1c-0.1,0.2-0.2,0.3-0.2,0.5h-9.8c-1.4,0-2.7,0.4-3.9,1.1c-0.3-0.3-0.7-0.6-1.1-0.9
			c-0.2-0.5-0.4-0.9-0.6-1.4c-1.2-2-3.4-3.4-5.7-3.6l-9.6-0.9c-0.8-0.1-1.5,0-2.3,0.2c-0.6-0.1-1.1-0.2-1.7-0.2h-9.9
			c-0.9,0.2-1.8,0.2-2.7,0H329c-0.7,0-1.3,0.1-2,0.3c-0.4-0.1-0.8-0.1-1.2-0.1H316c-2,0-3.9,0.8-5.2,2.2c-0.9-0.4-1.9-0.6-2.9-0.6
			h-11.2c-0.9-0.5-1.9-0.9-2.9-1l-9.4-1c-2.4-0.3-4.7,0.6-6.3,2.3c-1.2-0.8-2.7-1.2-4.1-1.2h-20.1c-0.6,0-1.2,0.1-1.8,0.2
			c-1.2-0.8-2.7-1.3-4.2-1.3h-27.1c-0.7,0.1-1.4,0.1-2.1,0h-22.4c-4.1,0-7.5,3.4-7.5,7.5l0,0v7.2c-1-0.5-2-0.8-3.1-0.9l0.3-5.3
			c0.2-4.1-3-7.7-7.1-7.9c-0.1,0-0.2,0-0.4,0h-40.4c-2.3,0-4.5,1.1-5.9,2.9c-1.3-1.3-3-2.2-4.8-2.4l-9.6-0.9c-0.8-0.1-1.6,0-2.4,0.2
			c-0.6-0.1-1.1-0.2-1.7-0.2h-9.9c-0.4,0-0.9,0-1.3,0.1c-0.4-0.1-0.9-0.1-1.3-0.1h-9.8c-0.7,0-1.3,0.1-2,0.3C89,54,88.6,54,88.2,54
			h-9.7c-2.5,0-4.8,1.3-6.2,3.3c-0.2,0.3-0.4,0.7-0.6,1.1c-1-0.5-2.1-0.7-3.2-0.7H17.6c-4.1,0-7.5,3.4-7.5,7.5l0,0v12.1
			c0,4.1,3.4,7.5,7.5,7.5l0,0h11.6v9.4H16c-4.1,0-7.5,3.4-7.5,7.5l0,0v11.8c0,4.1,3.3,7.5,7.4,7.5c0,0,0,0,0.1,0h54.6
			c1.3,0,2.5-0.3,3.6-0.9l0.4,0.6c2.2,3,6.2,3.9,9.5,2.2l6.2-3.3c1.3,2.5,3.9,4.1,6.7,4.1h10.2c3,0,5.7-1.8,6.9-4.6l8.7,4.1
			c3.7,1.7,8,0.2,9.9-3.4l0.2-0.3l8.1,3.7c2,0.9,4.3,0.9,6.3,0c0.7-0.3,1.3-0.7,1.9-1.2c1.4,1.5,3.4,2.3,5.4,2.3
			c1.3,0,2.6-0.3,3.7-1l11-6.3l12.4,6c3.1,1.5,6.9,0.7,9.1-2.1c0.3,0.1,0.6,0.2,0.9,0.3l9.8,2.3c1.2,0.3,2.5,0.3,3.7-0.1
			c0.4,0.1,0.8,0.1,1.2,0.1h12.3c0.7-0.1,1.4-0.1,2.1,0h10.1c0.8,0,1.7-0.1,2.5-0.4c0.7,0.2,1.5,0.3,2.3,0.3c1.7,0,3.3-0.7,4.6-1.7
			c3.3,2.5,8,1.9,10.5-1.3c0.3-0.4,0.6-0.9,0.8-1.3c1.2,2.7,3.9,4.3,6.8,4.4h12.8c2.5,0,4.9-1.3,6.2-3.4l5.5,3.1
			c1.1,0.6,2.4,1,3.7,1c1.7,0,3.3-0.6,4.6-1.6c1,0.5,2.1,0.7,3.2,0.7h12.9c2,0,3.9-0.8,5.2-2.1c2.3,2.7,6.1,3.4,9.2,1.8l6.2-3.3
			c1.3,2.5,3.9,4.1,6.7,4.1h10.2c3,0,5.7-1.8,6.9-4.6l8.7,4.1c3.7,1.7,8,0.2,9.9-3.4l1.8-3.5V149c0,4.1,3.4,7.5,7.5,7.5l0,0h76
			c2,0,3.9-0.8,5.3-2.2c1.4,1.8,3.6,2.9,5.9,2.9h84.7c4.1,0,7.5-3.4,7.5-7.5l0,0v-9.3c0-3.8-2.8-7-6.6-7.4v-29.5l5.8-3.8
			C560.5,98.2,561.8,95.7,561.7,93z M42.9,106l0.2-0.2l0.2,0.2H42.9z M43.1,73.2c-0.1-0.2-0.2-0.3-0.4-0.5h0.7
			C43.3,72.9,43.2,73,43.1,73.2L43.1,73.2z M70,89.4c-1.3,1.3-2.2,3-2.3,4.8H56.9v-9.4h11.6c0.1,1.4,0.7,2.7,1.5,3.7V89.4z
			 M102.2,102c-0.3-0.3-0.7-0.6-1.1-0.8c0.4-0.2,0.7-0.5,1-0.8c0.3,0.3,0.7,0.6,1.1,0.8C102.9,101.4,102.5,101.7,102.2,102z
			 M166.7,101.4c0-0.1,0-0.3,0-0.4c0.5,0.1,1,0.1,1.5,0.1c0.3,0,0.7-0.1,1-0.2v0.1C168.4,101,167.5,101.1,166.7,101.4L166.7,101.4z
			 M228.3,91.1L228.3,91.1l-0.1-2.9l0.4,0.1C228.4,89.2,228.2,90.2,228.3,91.1L228.3,91.1z M264.5,85.1c-0.2-0.3-0.4-0.7-0.6-1
			c0.2-0.2,0.4-0.4,0.5-0.6c0.4,0.1,0.7,0.1,1.1,0.1C265.1,84.1,264.7,84.6,264.5,85.1L264.5,85.1z M339.8,102
			c-0.3-0.3-0.7-0.6-1.1-0.8c0.4-0.2,0.7-0.5,1-0.8c0.3,0.3,0.7,0.6,1.1,0.8C340.4,101.4,340.1,101.7,339.8,102z M391.2,141.5h-4.1
			v-26.4h3.5c-1,1.3-1.6,3-1.6,4.6v2.4c0,2.2,1,4.3,2.7,5.8c-1.7,1.4-2.7,3.5-2.7,5.8v2.4C389,138.2,389.8,140.1,391.2,141.5
			L391.2,141.5z M402.2,97.9c2.9-1.1,4.9-3.9,4.9-7V79.8c0-3.5-2.4-6.5-5.8-7.3c0.6-0.6,1.1-1.3,1.5-2c0.2-0.3,0.3-0.6,0.4-0.9
			l3.5-0.1l1.2,1.9c0.7,1,1.7,1.8,2.8,2.4c-2,1.4-3.1,3.7-3.1,6.1v11.1c0,3.1,2,5.9,4.9,7L402.2,97.9z M435.1,97.9h-10.4
			c2.9-1.1,4.9-3.9,4.9-7V79.8c0-2.4-1.2-4.7-3.2-6.1c1.4-0.7,2.6-1.9,3.3-3.3l0.5-1l4.7,0.4c0.2,0.4,0.4,0.8,0.6,1.2
			c0.3,0.5,0.7,1,1.1,1.4c-3.7,0.5-6.5,3.7-6.5,7.4v11.1C430.1,93.9,432.1,96.7,435.1,97.9L435.1,97.9z M448.1,141.5h-5
			c1.4-1.4,2.2-3.3,2.2-5.3v-2.4c0-2.2-1-4.3-2.7-5.8c1.7-1.4,2.7-3.5,2.7-5.8v-2.4c0-1.7-0.6-3.3-1.6-4.6h4.4L448.1,141.5z
			 M466,132.9c-1,0.1-2,0.5-2.9,1v-21.2c1-0.2,2-0.6,2.9-1.2V132.9z M483.2,130.7H481v-19.5h2.1c-0.1,0.4-0.1,0.7-0.1,1.1v3.8
			c0,1.6,0.5,3.1,1.4,4.4c-0.9,1.3-1.4,2.8-1.4,4.4v4C483,129.5,483.1,130.1,483.2,130.7L483.2,130.7z M520.1,77.9
			c-0.3,1-0.3,2.1-0.1,3.1c-3.9-1.4-8.2,0.6-9.6,4.5c-0.3,0.8-0.4,1.7-0.4,2.5v7.2h-3v-7.2c0-4.1-3.4-7.5-7.5-7.5
			c-1.2,0-2.4,0.3-3.5,0.9c0.7-2.7-0.2-5.5-2.2-7.4h5.8c3.3,0,6.2-2.1,7.2-5.3h3.6c1,3.1,3.9,5.3,7.2,5.3h4.8
			C521.2,75.1,520.4,76.4,520.1,77.9L520.1,77.9z M537.6,130.7h-3.2c0.1-0.6,0.2-1.2,0.2-1.8v-4c0-1.6-0.5-3.1-1.5-4.4
			c0.9-1.3,1.5-2.8,1.5-4.4v-3.8c0-0.4,0-0.7-0.1-1.1h3.1V130.7z M66.8,48.9l14.5,4.8c1,0.3,2.1,0.3,3.1,0l14.5-4.8
			c2-0.7,3.4-2.6,3.4-4.7V28.7l2.8,2.6c-1.4,0.9-2.3,2.5-2.3,4.2v6.7c0,2.8,2.2,5,5,5H120V49c0,2.8,2.2,5,5,5h7.2c2.8,0,5-2.2,5-5
			v-1.8h6.1c2.8,0,5-2.2,5-5v-6.6c0-1.4-0.6-2.8-1.7-3.7v-6.3c0.5-0.8,0.7-1.7,0.7-2.5v-6.5c0-2.8-2.2-5-5-5h-15.9
			c-0.7-0.8-1.8-1.4-2.9-1.6l-7.9-1.4c-1.4-0.3-2.8,0.1-3.9,0.9l-9.9,7.5c-0.6-1.3-1.7-2.3-3-2.8L84.4,9.4c-1-0.3-2.1-0.3-3.1,0
			l-14.5,4.7c-2.1,0.7-3.5,2.6-3.5,4.8v25.3C63.3,46.3,64.7,48.2,66.8,48.9z M81.3,27.7l1.6-0.5l1.6,0.5v7.8L82.9,36l-1.6-0.5V27.7z
			 M40.2,29.2V49c0,2.8,2.2,5,5,5h9.4c2.8,0,5-2.2,5-5V16.2c0-2.8-2.2-5-5-5H41.3c-2.8,0-5,2.2-5,5v8.1
			C36.3,26.7,37.9,28.8,40.2,29.2z M49.7,21.2v0.9c-0.2-0.3-0.3-0.6-0.6-0.9H49.7z M15.4,29.2V49c0,2.8,2.2,5,5,5h9.5
			c2.8,0,5-2.2,5-5V16.2c0-2.8-2.2-5-5-5H16.5c-2.8,0-5,2.2-5,5v8.1C11.5,26.7,13.1,28.8,15.4,29.2z M24.9,21.2v0.8
			c-0.2-0.3-0.3-0.6-0.5-0.8H24.9z M182,143.4c0.1-0.1,0.1-0.2,0.2-0.3c1.1-1.8,1-4.1-0.4-5.8c0.4-0.8,0.5-1.7,0.4-2.6
			c-0.1-1.2-0.1-2.4,0-3.5c0.3-2.7-1.8-5.2-4.5-5.4c-0.4,0-0.8,0-1.3,0c-0.6,0.1-1.2,0.1-1.8,0.1h-1.6c-1-1-2.4-1.5-3.8-1.5
			c-1.4,0-2.9,0-4.3-0.2c-1.5-0.3-3.1,0.2-4.2,1.2c-0.2,0.1-0.3,0.3-0.4,0.4h-0.9c-0.6,0-1.2,0-1.8-0.1c-0.8-0.1-1.6-0.1-2.3,0.2
			c-0.6-0.1-1.2-0.2-1.8-0.1l-0.8,0.1c-1-0.9-2.3-1.4-3.7-1.4c-1.1,0-2.2,0-3.2-0.1c-1-0.2-2.1,0-3,0.4c-0.9-0.4-1.9-0.4-2.9-0.2
			c-0.2,0-0.5,0.1-0.7,0.1h-4.7c-0.2,0-0.4,0-0.6,0c-0.9-0.2-1.9-0.2-2.8,0.1c-0.6-0.1-1.2-0.1-1.8,0c-0.4,0.1-0.9,0.1-1.3,0.1
			h-10.2c-0.4,0-0.9,0-1.3-0.1c-0.9-0.2-1.8-0.1-2.6,0.2c-0.6-0.2-1.2-0.4-1.8-0.5c-1.6-0.4-3.3,0-4.6,1.1c-0.6-0.1-1.3-0.1-1.9,0
			c-0.5,0.1-1,0.1-1.5,0.1h-2.5c-1-0.8-2.3-1.3-3.5-1.2c-1.1,0-2.3,0-3.4-0.1c-1.5-0.3-3,0.2-4.2,1.2c-0.1,0.1-0.2,0.1-0.2,0.2h-2.3
			c-0.5,0-1.1,0-1.6-0.1c-1.1-0.2-2.2,0-3.2,0.6c-0.2,0-0.3-0.1-0.5-0.1c-0.8-0.6-1.7-1.1-2.7-1.2h-0.4c-1.1-0.1-2.8-0.3-3.8-0.5
			c-1.2-0.3-2.4-0.1-3.4,0.5c-1.2-0.6-2.6-0.8-3.9-0.3c-1.2,0.4-2.4,0.7-3.7,1c-0.7,0.1-1.3,0.4-1.9,0.8h-0.6c-0.3,0-0.6,0-0.9,0
			c-0.9-0.4-1.9-0.5-2.8-0.3c-0.5,0.1-1,0.1-1.5,0.1h-2.2c-1-0.9-2.4-1.4-3.7-1.4c-1.4,0-2.8,0-4.2-0.2c-1.5-0.3-3.1,0.2-4.2,1.2
			c-0.1,0.1-0.2,0.2-0.3,0.3h-2.3c-0.5,0-1,0-1.5-0.1c-0.7-0.1-1.5-0.1-2.2,0.1c-0.7-0.2-1.3-0.2-2-0.1c-0.8,0-1.6,0-2.4,0H17.7
			c-0.8,0-1.6,0-2.4-0.1c-2.7-0.4-5.3,1.6-5.6,4.3c-0.1,0.4-0.1,0.9,0,1.3c0.1,0.6,0.1,1.3,0.1,1.9c0,0.7-0.1,1.3-0.1,2
			c-0.2,1.5,0.3,3,1.4,4.1c0.3,0.3,0.6,0.5,0.9,0.7c-2,0.9-3.1,2.9-2.9,5.1c0.1,0.7,0.1,1.4,0.1,2.1c0,0.6-0.1,1.4-0.1,2.2
			c-0.3,2.7,1.8,5.2,4.5,5.4c0.4,0,0.7,0,1.1,0c0.8-0.1,1.7-0.2,2.5-0.2h15.6c0.7,0,1.4,0,2.2,0.1c0.9,0.9,2.1,1.4,3.4,1.4h0.5
			c0.5-0.1,1.1-0.1,1.6-0.1c0.5,0,1.1,0,1.6,0.1c1.4,0.1,2.8-0.3,3.8-1.3h3.1c0.9,0.7,2,1.1,3.1,1.1h3.7c1.5,0,3-0.4,4.3-1.1
			c1,1,2.5,1.5,3.9,1.3c0.6-0.1,1.1-0.1,1.7-0.1c0.7,0,1.3,0,1.9,0.1c1.1,0.1,2.3-0.2,3.2-0.8H74c0.9,0.6,2,0.9,3.1,0.8
			c0.7-0.1,1.6-0.1,2.6-0.1c0.3,0,0.5,0,0.8,0.1c0.2,0,0.5,0,0.7,0c0.9,0,1.7-0.2,2.5-0.7c0.7,0.3,1.5,0.4,2.2,0.3
			c0.6,0,1.2-0.1,1.8-0.1h16.5c0.7,0,1.3,0,1.7,0.1c0.2,0,0.4,0,0.5,0c0.6,0,1.3-0.1,1.9-0.4c0.7,0.5,1.5,0.8,2.3,0.9
			c0.2,0,0.3,0,0.5,0c1.4,0,2.7-0.6,3.7-1.6l0.1-0.1c2.7,0.8,5.6,1.1,8.4,1.1c2.4,0,4.6,0,6.9-0.1c0.1,0,0.2,0,0.3,0
			c0.8,0.4,1.8,0.6,2.7,0.5c0.4,0,0.8-0.1,1.3-0.1c0.5,0,1,0,1.4,0.1c1.6,0.2,3.1-0.4,4.2-1.6c0.2-0.3,0.5-0.5,0.6-0.9
			c0.2,0.3,0.4,0.5,0.6,0.8c1,1.1,2.3,1.7,3.7,1.7h0.5c1-0.1,2.1-0.1,3.1,0c1.5,0.1,3-0.4,4-1.5c0.3-0.3,0.6-0.7,0.8-1.1
			c0.4,0.1,0.9,0.1,1.4,0c1.4,1.9,3.9,2.6,6.1,1.7c0.9,0.7,2,1.1,3.1,1.1c0.3,0,0.5,0,0.8-0.1c1.2-0.2,2.4-0.2,3.6,0
			c1.5,0.2,3.1-0.3,4.2-1.4c1.1,0.7,2.5,1,3.9,0.7c1.3-0.3,2.5-1.2,3.2-2.4c0.7-1.2,1.5-2.5,2.4-3.8
			C183.6,147.7,183.4,145.1,182,143.4L182,143.4z M372.6,145.4c-0.2-0.7-0.6-1.4-1.1-2c0.1-0.1,0.1-0.2,0.2-0.3
			c1.1-1.8,1-4.1-0.4-5.8c0.4-0.8,0.5-1.7,0.5-2.6c-0.1-1.2-0.1-2.4,0-3.5c0.3-2.7-1.8-5.2-4.5-5.4c-0.4,0-0.8,0-1.3,0
			c-0.6,0.1-1.2,0.1-1.8,0.1h-1.5c-1-1-2.4-1.5-3.8-1.5c-1.4,0-2.9,0-4.3-0.2c-1.5-0.3-3.1,0.2-4.2,1.2c-0.2,0.1-0.3,0.3-0.4,0.4
			H349c-0.6,0-1.2,0-1.8-0.1c-0.4,0-0.7,0-1.1,0c-1-0.6-2.1-0.9-3.3-0.8c-0.5,0.1-1,0.1-1.5,0.1h-5.5c-0.6,0-1.1,0-1.5-0.1
			c-0.5-0.1-1.1,0-1.6,0.1c-0.8-0.4-1.6-0.5-2.4-0.5c-1.1,0-2.2,0-3.2-0.1c-1.5-0.3-3.1,0.2-4.2,1.2c-0.2,0.2-0.4,0.4-0.5,0.6
			c-0.9-0.5-1.9-0.7-2.8-0.6c-0.5,0.1-1,0.1-1.5,0.1h-2.9c-1-0.8-2.2-1.2-3.5-1.1c-1.3,0-2.6,0-3.9-0.2c-1.5-0.2-3,0.2-4.1,1.2
			c0,0-0.1,0.1-0.1,0.1h-2.9c-0.5,0-1,0-1.5-0.1c-0.6-0.1-1.2,0-1.8,0.1c-0.5-0.1-1.1-0.1-1.6,0c-0.2,0-0.3,0-0.5,0h-0.8
			c-1-0.9-2.3-1.4-3.7-1.3c-1.2,0-2.4,0-3.6-0.2c-1.6-0.3-3.2,0.2-4.3,1.3c-0.1,0.1-0.1,0.1-0.2,0.2h-0.6c-0.2,0-0.3,0-0.5,0
			c-0.3,0-0.6-0.1-0.9-0.1c-0.5-0.2-0.9-0.5-1.4-0.7c-1.5-0.7-3.2-0.6-4.6,0.2c-0.9-0.3-1.8-0.4-2.7-0.2c-0.4,0.1-0.8,0.1-1.2,0.1
			h-8.2c-0.4,0-0.9,0-1.3-0.1c-0.9-0.2-1.8-0.1-2.7,0.3c-0.7-0.2-1.3-0.4-2-0.6c-2.3-0.9-4.9-0.1-6.1,2c-0.4-0.4-0.9-0.7-1.4-1
			c-0.2-0.1-0.4-0.3-0.6-0.4c-1.6-1.4-3.8-1.7-5.7-0.7c-0.4,0-0.8,0-1.1,0.1h-2.9c-0.7-0.1-1.3-0.1-2,0c-0.9-0.5-2-0.7-3-0.5
			c-0.9,0.1-1.8,0.5-2.5,1.1c-1.5-0.5-3.1-0.4-4.4,0.5c-0.5-0.2-1.1-0.3-1.7-0.3h-5c-0.9-0.6-2-0.9-3.1-0.9c-1.3,0-2.6,0-3.9-0.2
			c-1.4-0.2-2.8,0.2-3.9,1.1H204c-2.8,0-5,2.2-5,5v2.1c0,0.8,0.2,1.6,0.6,2.3c0,0.3,0,0.7,0.1,1c-0.8,1.1-1.1,2.4-0.9,3.6
			c0,0.1,0,0.3,0,0.4v1.5c0,0.4,0,0.9-0.1,1.5c-0.1,1.1,0.2,2.2,0.8,3.1c0,0.1,0,0.3-0.1,0.4c-0.6,0.8-0.9,1.8-0.9,2.8v2.3
			c0,2.8,2.2,5,5,5c0.3,0,0.5,0,0.8-0.1h0.1h19.8c0.3,0.1,0.6,0.1,0.9,0.1c0.7,0,1.5-0.2,2.1-0.5c0.8,0.5,1.8,0.8,2.8,0.8
			c1.7,0,3.4-0.8,4.4-2.3c0.3,0,0.7,0,1.1,0c0.9,1.3,2.4,2,4,2c4.8,0,6.7-0.4,7.8-0.8h0.1c0.5-0.2,0.9-0.4,1.4-0.7
			c0.4,0.2,0.9,0.3,1.4,0.4c0.3,0,0.7,0.1,1,0.2c0.9,0.6,1.9,1,3,1h0.4c1-0.1,2-0.1,2.9,0c0.7,0,1.4,0,2-0.3c0.5,0,1,0,1.5-0.1
			c0.2,0,0.4-0.1,0.6-0.1h9.9c1.2,0.3,2.5,0.2,3.6-0.4c0.8,0.5,1.8,0.8,2.8,0.8c0.5,0,1-0.1,1.5-0.2c0.8,0.4,1.6,0.7,2.5,0.7l0,0
			c1.3,0,2.6-0.6,3.6-1.5c0.3-0.3,0.6-0.6,0.8-0.9h1.3c0.9,1.3,2.4,2,4,2h3.6c1,0,2.1-0.3,2.9-0.9c0.9,0.7,1.9,1,3,1
			c0.4,0,0.9-0.1,1.3-0.2c1.5-0.4,2.9-0.9,4.3-1.6c1.4,0.9,3,1.4,4.7,1.3h4.5c1.6,0,3.2-0.4,4.6-1.2c0.1,0.1,0.2,0.2,0.4,0.3
			c1.3,1.1,3,1.5,4.6,1.1c0.7-0.2,1.3-0.5,1.9-1c2.7,0.8,5.4,1.1,8.2,1l7.6-0.2c1,0,1.9-0.3,2.7-0.9c1.4,0.8,3.1,0.9,4.5,0.2
			c0.9,0.7,2,1.1,3.1,1.1c0.3,0,0.5,0,0.8-0.1c1.2-0.2,2.4-0.2,3.6,0c1.5,0.2,3.1-0.3,4.2-1.4c1.1,0.7,2.5,1,3.9,0.7
			c1.3-0.3,2.5-1.2,3.2-2.4c0.7-1.2,1.5-2.5,2.4-3.8C372.6,148.4,372.9,146.9,372.6,145.4L372.6,145.4z"/>
		<path class="st1" d="M68.4,65.2v12.1h-19v24.5h21.2v11.8H16v-11.8h20.8V77.2H17.6V65.2H68.4z"/>
		<path class="st1" d="M101.2,61.3V66h2.7v-4.7h9.9V66h1.6l1.8-4.7l9.6,0.9l-1.6,3.8h4.6v8.2h-13.4l-0.8,1.8h13.2v7.9h-21.5v1.7
			h20.6v7.8h-20.6v1.5h22.4v8.5h-10.8l11.9,3.8l-4.7,9.1l-18.8-8.8v8.6H97.1v-8.7l-16.4,8.7l-6.6-8.8l14.2-3.9H75.1v-8.5h22v-1.5
			H77.5v-7.8h19.6v-1.7H75.9V76H89l-0.7-1.7H75.1V66h5.2l-1.9-4.5h9.7l1.9,4.5h1.4v-4.7L101.2,61.3z M105.1,74.2h-5.5l0.6,1.7h4.3
			L105.1,74.2z"/>
		<path class="st1" d="M178.4,61.7l-0.6,13.2h7.4v12.4l-8.6,12.2l13.3,5.5l-5,11.1l-16-7.7l-14.4,8.2l-5.7-10.7l10.3-5.2l-8.1-9.1
			l-6.9,24.7l-10.4-4.8L145,73h-6.9V61.7H178.4z M167.7,93.6l5.6-8.2h-7.8l1-12.3h-10.1l-1.8,6.2L167.7,93.6z"/>
		<path class="st1" d="M218.7,61.1v54.8h-12.3v-11.4h2.8v-5.9h-3.9l-2.1,17.5l-9.8-2.3l2.9-22.1V61.1H218.7z M209.1,75v-3.2h-3.2V75
			H209.1z M209.1,88.5v-3.5h-3.2v3.4L209.1,88.5z M247.8,61.1v19.1h-14.3V73h3.9v-1.8h-6.6v10h17.6v12.2l-3.3,5.6l4.8,5.8l-5.2,10.8
			l-5.3-6.7l-4.1,6.9l-4.6-6.9v7h-10.1V61.1H247.8z M230.8,98.1v7.5l2.6-4.3L230.8,98.1z M238,93.8l1.9-3.1h-4.1L238,93.8z"/>
		<path class="st1" d="M273.9,62.2l4,6.1l-5,10.4h5.8v18h-5.2v-8.1h-2.4v27.1h-12.8v-10.6h3.5v-8.1l-7.1,11.2l-2.4-12.2l5.6-7.5
			h-4.9v-9.9h5.8l-3.8-7.1h-1.1v-9.4H273.9z M265.6,76.2l2.1-4.6h-4.5L265.6,76.2z M307.3,91.6v24.1h-12.9V105h3.4v-4.6h-1.7
			l-9.5,16.2l-9.9-5.6l7.6-10.6h-3.5v-8.8h7.2v-3.1h9.2v3.1L307.3,91.6z M293,62.1l-0.4,1H308v8.6h-1.1l-4.4,5.9l6.7,2.7l-2.4,10.5
			L294.5,84l-12.1,7.2l-3-8.8l6.1-3.3l-2.1-1.8l-0.8,1.4l-5.7-3.8l6.7-13.9L293,62.1z M296.4,71.7h-6.7l3.8,3L296.4,71.7z"/>
		<path class="st1" d="M338.7,61.3V66h2.7v-4.7h9.9V66h1.6l1.8-4.7l9.6,0.9l-1.6,3.8h4.6v8.2h-13.4l-0.8,1.8h13.2v7.9h-21.5v1.7
			h20.6v7.8h-20.6v1.5h22.5v8.5h-10.8l11.9,3.8l-4.7,9.1l-18.8-8.8v8.6h-10.2v-8.7l-16.4,8.7l-6.6-8.8l14.2-3.9h-13.2v-8.5h22v-1.5
			H315v-7.8h19.6v-1.7h-21.1V76h13.1l-0.7-1.7h-13.2V66h5.2l-1.9-4.5h9.7l2,4.5h1.4v-4.7L338.7,61.3z M342.6,74.2h-5.5l0.6,1.7h4.3
			L342.6,74.2z"/>
		<path class="st2" d="M410.5,61.8l3.7,5.2h8.8l2.7-5.5l18.2,1.4l-2,4.1h17.8v12.7h-8.4l10,4.4l-10.7,6.2L438,84.8l9-5.1h-9.4v11.1
			h24.1v14.5h-87V90.8h24.8V79.8h-9.6l9.1,4.5l-11,6.1l-11.8-5.7l8.4-4.9h-8.3V67h19.8l-3.1-4.7L410.5,61.8z M455.6,107.7V149h-76
			v-41.3H455.6z M437.8,122.2v-2.4h-41.3v2.4H437.8z M437.8,136.2v-2.4h-41.3v2.4H437.8z M422,79.8h-6.9v11.1h6.9V79.8z"/>
		<path class="st2" d="M477.1,102.6l22.5-14.5v14.7h18V88.1l23.6,13.8l13.1-8.6l-26.8-13.7H552V66.6h-34.5v-5.3h-18v5.3h-33.7v13.1
			h22.9l-24.6,13.5L477.1,102.6z M473.5,138.2H545v-34.5h-71.5V138.2z M490.5,112.2H527v3.8h-36.5L490.5,112.2z M490.5,124.9H527v4
			h-36.5L490.5,124.9z M466.8,149.6h84.8v-9.3h-84.8V149.6z"/>
		<path class="st1" d="M29.9,16.2V49h-9.5V24.4h-3.9v-8.1H29.9z"/>
		<path class="st1" d="M54.7,16.2V49h-9.5V24.4h-3.9v-8.1H54.7z"/>
		<path class="st1" d="M97.4,18.9v25.3L82.9,49l-14.5-4.8V18.9l14.5-4.7L97.4,18.9z M89.4,24l-6.6-2.1L76.3,24v15l6.6,2.2l6.6-2.2
			L89.4,24z"/>
		<path class="st1" d="M122.7,14.8l-1.4,1.7h21.1V23h-10.2v2.4h9.5v6.7h-9.5v3.5h11.2v6.7h-11.2V49H125v-6.8h-17.2v-6.6h4.5V27
			l-1.9,2.3l-7.5-6.9l11.9-9.1L122.7,14.8z M115.8,23l-2,2.4H125V23H115.8z M125,32.1h-5.7v3.5h5.7V32.1z"/>
		<path class="st3" d="M17.7,131H32c1,0,2-0.1,3.1-0.2c-0.3,1.7-0.3,3.5,0,5.2c-1-0.1-2-0.2-3.1-0.2h-4.3v9.2h5c1,0,2.1-0.1,3.1-0.2
			c-0.1,0.9-0.2,1.8-0.2,2.7c0,0.9,0.1,1.8,0.2,2.7c-1-0.1-2.1-0.2-3.1-0.2H17.1c-1,0-2.1,0.1-3.1,0.2c0.1-1,0.2-1.9,0.2-2.7
			c0-0.9-0.1-1.8-0.2-2.7c1,0.1,2.1,0.2,3.1,0.2h5.2v-9.2h-4.6c-1,0-2,0.1-3.1,0.2c0.1-0.9,0.2-1.7,0.2-2.6c0-0.9-0.1-1.7-0.2-2.6
			C15.6,131,16.6,131,17.7,131z"/>
		<path class="st3" d="M51.1,129.6c0.3,0,0.5,0.1,0.5,0.3c0,0.2-0.1,0.3-0.3,0.4c-0.2,0.2-0.4,0.4-0.3,0.7h6.1
			c0.8,0,1.6-0.1,2.4-0.2c0,0.8-0.1,1.5-0.1,2.1s0,1.4,0.1,2.1c-0.7-0.1-1.5-0.1-2.4-0.1h-1.5l-0.7,1.3h1.8c0.7,0,1.4,0,2.1-0.1
			c-0.1,0.6-0.1,1.2-0.1,1.9v10.2c0,2-1,3.1-2.9,3.1h-3.6c0-0.4-0.1-0.8-0.1-1.1h-6.7c-0.6,0-1.3,0-1.9,0.1c0.1-0.6,0.2-1.2,0.2-1.8
			v-3.4c-0.2,0.1-0.3,0.2-0.5,0.3c-0.2-0.3-0.4-0.6-0.6-0.9v5c0,0.7,0,1.3,0.1,2c-0.7-0.1-1.4-0.1-2.1-0.1s-1.4,0-2.1,0.1
			c0.1-0.7,0.2-1.3,0.2-2V138c0-0.6-0.1-1.2-0.2-1.9c0.7,0.1,1.4,0.1,2.1,0.1H42l-0.5-1.2H40c-0.7,0-1.5,0.1-2.4,0.1
			c0-0.8,0.1-1.5,0.1-2.1s0-1.4-0.1-2.1c0.8,0.1,1.6,0.2,2.4,0.2h6.2c0-0.5-0.1-1.1-0.1-1.7C47.8,129.6,49.4,129.7,51.1,129.6z
			 M43.8,140.5c0.2-0.2,0.3-0.5,0.5-0.7h-2v2C42.9,141.4,43.4,141,43.8,140.5z M50.2,136.3l0.7-1.3h-4.7l0.4,1.3H50.2z M49.4,142.4
			v-2.7h-1.5c-0.3,0.9-0.7,1.8-1.2,2.6l-0.1,0.1L49.4,142.4z M49.8,145.7h-2.7v1.2h2.7V145.7z M52.8,140.7c0,0.6,0.3,0.8,1,0.8h0.8
			v-1.8h-1.8L52.8,140.7z M53.4,147.2c0.2,0,0.5,0,0.7,0c0.3,0,0.5-0.1,0.5-0.5v-2.4h-1.3L53.4,147.2z"/>
		<path class="st3" d="M71.1,131.3h2.7c0.4-0.6,0.7-1.3,0.9-2c1.4,0.3,2.9,0.5,4.3,0.6c0.3,0,0.4,0.1,0.4,0.3s-0.2,0.3-0.4,0.4
			l-0.6,0.7h1.7c0.8,0,1.6,0,2.4-0.1c-0.1,0.7-0.1,1.3-0.1,2c0,0.7,0,1.4,0.1,2.1c-0.8-0.1-1.6-0.2-2.4-0.2h-1.1
			c0.9,0.3,1.8,0.6,2.8,0.8c0.4,0.1,0.6,0.2,0.6,0.4s-0.2,0.3-0.4,0.4c-0.1,0.3-0.2,0.6-0.3,0.9c0.5,0,1-0.1,1.4-0.2
			c0,0.7-0.1,1.3-0.1,1.9s0,1.3,0.1,1.9c-0.7,0-1.4-0.1-2.2-0.1H63.7c-0.7,0-1.4,0-2.2,0.1c0-0.7,0.1-1.4,0.1-1.9s0-1.3-0.1-1.9
			c0.6,0.1,1.2,0.2,1.8,0.2c-0.3-0.5-0.6-1-0.9-1.5c0.9-0.3,1.8-0.6,2.6-1h-0.6c-0.8,0-1.6,0.1-2.4,0.2c0-0.8,0.1-1.5,0.1-2.1
			s0-1.4-0.1-2c0.9,0.1,1.7,0.1,2.4,0.1h2.1c-0.2-0.3-0.4-0.6-0.6-0.9c1.4-0.3,2.8-0.7,4.2-1.2C70.4,129.9,70.8,130.6,71.1,131.3z
			 M65.6,142h14.2c0.5,0,1,0,1.5-0.1c0,0.4-0.1,0.9-0.1,1.3v6.1c0,0.7,0,1.4,0.1,2.2c-0.5-0.1-1-0.1-1.5-0.1c-1,0-2,0-3,0.1
			c0-0.3,0-0.6,0-0.8h-9c0,0.3,0,0.6,0.1,0.8c-0.8-0.1-1.6-0.1-2.3-0.1s-1.5,0-2.2,0.1c0-0.8,0.1-1.5,0.1-2.2v-6.1
			c0-0.4,0-0.9-0.1-1.3C64.2,142,64.9,142,65.6,142z M67.4,137.7v-2.6h-1.3C66.7,136,67.1,136.8,67.4,137.7L67.4,137.7z M76.9,145
			v-0.7h-9.2v0.7H76.9z M76.9,147.9v-0.6h-9.2v0.6H76.9z M72.8,137.7v-2.6h-1.1v2.6H72.8z M77.2,137.7c0.5-0.8,0.8-1.7,1.1-2.6H77
			v2.6H77.2z"/>
		<path class="st3" d="M87.9,130.8h5.9c0-0.5,0-0.9-0.1-1.5c1.4,0.2,2.9,0.3,4.3,0.2c0.3,0,0.4,0.1,0.4,0.2s-0.1,0.2-0.2,0.4
			c-0.2,0.2-0.3,0.4-0.3,0.6h6.2c0.8,0,1.6-0.1,2.4-0.2c-0.1,0.8-0.1,1.5-0.1,2.1s0,1.4,0.1,2.1c-0.7-0.1-1.5-0.1-2.4-0.1h-0.7
			c1.2,0.6,2.4,1.1,3.7,1.6c-0.9,1.2-1.7,2.5-2.4,3.8c-0.1-0.1-0.3-0.1-0.4-0.2v5.5c0,0.5,0,1,0.1,1.5c-0.8,0-1.5-0.1-2.2-0.1H89.7
			c-0.8,0-1.5,0.1-2.2,0.1c0.1-0.5,0.2-1,0.2-1.5v-5c-0.4,0.2-0.8,0.5-1.1,0.7c-0.4-1.4-1-2.8-1.7-4.2c1.4-0.6,2.7-1.3,4-2.1h-1
			c-0.7,0-1.5,0.1-2.4,0.1c0.1-0.8,0.1-1.5,0.1-2.1s0-1.4-0.1-2.1C86.3,130.7,87.1,130.8,87.9,130.8z M87.7,147.4h16.5
			c0.7,0,1.5,0,2.2-0.2c-0.1,0.6-0.1,1.3-0.1,1.9c0,0.6,0,1.2,0.1,1.9c-0.7-0.1-1.5-0.1-2.2-0.1H87.7c-0.7,0-1.4,0-2.2,0.1
			c0.1-0.8,0.1-1.4,0.1-1.9s0-1.3-0.1-1.9C86.2,147.4,87,147.4,87.7,147.4z M100.1,141.1v-0.8h-8.3v0.8H100.1z M100.1,143.2h-8.3
			v0.8h8.3V143.2z M93.8,137.5v-1.8c-0.6,0.6-1.3,1.2-2,1.8H93.8z M100.5,137.5c-0.9-0.6-1.8-1.3-2.6-2v2H100.5z"/>
		<path class="st3" d="M115.7,136c-0.8,1-1.6,2-2.2,3.1c-1.7-0.9-3.4-1.6-5.2-2.2c0.8-0.9,1.6-1.9,2.2-3
			C112.3,134.4,114,135.1,115.7,136z M118.3,134.3h9.2c0.7,0,1.4,0,2.1-0.1c-0.1,0.5-0.1,1-0.1,1.5v3.7c0,0.5,0,1,0.1,1.6l-1.1-0.1
			l-0.4,1.5h0.6c0.5,0,1.1,0,1.6-0.1c-0.1,0.7-0.1,1.4-0.1,2s0,1.4,0.1,2.1c-0.5-0.1-1.1-0.2-1.6-0.2h-11.8c0.3,0.2,0.7,0.3,1,0.4
			c1.4,0.4,2.9,0.6,4.4,0.5c2.9,0.1,5.8-0.1,8.7-0.5c-0.5,1.4-0.9,2.8-0.9,4.3c-1.7,0-3.9,0.1-6.7,0.1c-4.1,0-7.3-0.7-9.5-1.9
			c-1,0.8-1.9,1.6-2.8,2.6c-0.8-1.3-1.7-2.6-2.8-3.7c1-0.6,1.8-1.5,2.5-2.4v-2.2c-0.8,0-1.5,0-2.1,0.1c0-0.8,0.1-1.5,0.1-2.2
			s0-1.4-0.1-2.1c0.6,0.1,1.2,0.1,1.8,0.1h2.4c0.7,0,1.4,0,2.1-0.1c-0.1,0.7-0.1,1.4-0.1,2.1v3.8c0.2,0.2,0.4,0.3,0.6,0.5
			c0-0.4,0-0.8,0-1.1c0-0.7,0-1.4-0.1-2c0.5,0.1,1,0.1,1.6,0.1h0.7l-0.3-1.5l-1.2,0.1c0.1-0.5,0.2-1,0.2-1.6v-3.7
			c0-0.5-0.1-1-0.2-1.5C116.9,134.3,117.6,134.3,118.3,134.3L118.3,134.3z M117.8,130H128c0.7,0,1.5-0.1,2.2-0.2
			c-0.1,0.6-0.1,1.2-0.1,1.8c0,0.6,0,1.3,0.1,2c-0.7-0.1-1.4-0.1-2.2-0.1h-10.2c-0.7,0-1.4,0-2.2,0.1c0.1-0.7,0.1-1.4,0.1-1.9v-0.1
			c-0.7,0.9-1.4,1.8-1.9,2.8c-1.6-0.8-3.3-1.5-5-2c0.8-0.9,1.5-1.9,2.1-3c1.7,0.4,3.3,1,4.8,1.7c0-0.4,0-0.9-0.1-1.4
			C116.3,129.9,117,130,117.8,130L117.8,130z M125.6,137.2h-5.2v0.8h5.2V137.2z M123.9,142.4l0.4-1.5h-2.9l0.3,1.5H123.9z"/>
		<path class="st3" d="M134.5,129.8h4.7c0.6,0,1.2-0.1,1.9-0.2c-0.1,0.5-0.1,0.9-0.1,1.4h4.2c-0.1-0.5-0.1-1-0.2-1.6
			c1.3,0.2,2.7,0.2,4,0.2c0.2,0,0.4,0.1,0.4,0.2c0,0.1-0.1,0.3-0.2,0.4c-0.2,0.2-0.3,0.5-0.2,0.7v0.1h2.9c0.7,0,1.4,0,2.1-0.1
			c-0.1,0.6-0.1,1.2-0.1,1.8c0,0.6,0,1.3,0.1,1.9c-0.7-0.1-1.4-0.2-2.1-0.2H149v0.6h2.7c0.6,0,1.2,0,1.8-0.1
			c-0.1,0.5-0.1,0.9-0.1,1.4v6.7c0,0.5,0,0.9,0.1,1.4c-0.6,0-1.2-0.1-1.8-0.1H149v0.7h3.6c0.5,0,1,0,1.6-0.1c0,0.7-0.1,1.3-0.1,1.9
			s0,1.3,0.1,2c-0.5-0.1-1-0.2-1.6-0.2H149v1.2c0,0.5,0,1,0.1,1.6c-0.8-0.1-1.5-0.1-2-0.1c-0.7,0-1.3,0-2,0.1c0.1-0.5,0.2-1,0.2-1.6
			v-1.2h-4c-0.5,0-1.1,0.1-1.6,0.2c0-0.8,0.1-1.4,0.1-2c0-0.3,0-0.6,0-0.9c-0.8,0.4-1.6,0.8-2.5,1c-0.2-1.1-0.6-2.1-1-3.1v5.8
			c0,0.6,0.1,1.2,0.2,1.9c-0.6-0.1-1.3-0.1-1.9-0.1c-0.6,0-1.2,0-1.8,0.1c0-0.6,0.1-1.2,0.1-1.9v-17.9c0-0.8-0.1-1.5-0.1-2.1
			C133.3,129.7,133.9,129.8,134.5,129.8z M137.7,142.2c-0.2-1.3-0.6-2.6-1.3-3.7l1-4.7h-1.1v9.1
			C137.2,142.8,137.7,142.6,137.7,142.2L137.7,142.2z M145.3,134.4h-4.5l-0.8,3.7c0.4,0.6,0.7,1.3,1,2v-3.8c0-0.5,0-0.9-0.1-1.4
			c0.6,0.1,1.2,0.1,1.8,0.1h2.6L145.3,134.4z M145.3,144.3h-2.6c-0.4,0-0.9,0-1.3,0.1c-0.1,0.2-0.3,0.4-0.4,0.6h4.3V144.3z
			 M145.3,138.5v-0.9h-0.9v0.9H145.3z M145.3,140.8h-0.9v0.9h0.9V140.8z M149.1,138.5h1v-0.9h-1V138.5z M150.1,140.8h-1v0.9h1V140.8
			z"/>
		<path class="st3" d="M159.4,131h4.9c0-0.6-0.1-1.1-0.1-1.8c1.7,0.2,3.4,0.3,5.2,0.3c0.3,0,0.5,0.1,0.5,0.3c0,0.2-0.1,0.4-0.3,0.4
			c-0.2,0.2-0.4,0.5-0.4,0.8h5.6c0.9,0,1.7-0.1,2.6-0.2c-0.1,0.8-0.1,1.5-0.1,2.2s0,1.4,0.1,2.2c-0.8-0.1-1.6-0.1-2.6-0.1H172
			c1,0.2,2.2,0.4,3.6,0.6c0.3,0.1,0.4,0.2,0.4,0.3s-0.2,0.3-0.5,0.4c-0.2,0.6-0.5,1.2-0.7,1.7c1,0.7,2,1.4,3.2,2.2
			c-0.8,1.3-1.4,2.6-1.9,4c-0.9-1.1-2-2-3.1-2.9c-0.3,0.4-0.6,0.9-0.9,1.3c1.9,1.5,4,2.8,6.2,3.9c-0.9,1.3-1.8,2.6-2.7,4.2
			c-2.2-1.5-4.4-3.1-6.4-4.9v3.5c0,0.7,0.1,1.3,0.2,2c-0.9-0.1-1.7-0.2-2.6-0.2c-0.9,0-1.7,0.1-2.6,0.2c0.1-0.7,0.2-1.3,0.2-2V147
			c-1.7,1.5-3.5,2.8-5.4,3.9c-0.9-1.4-1.9-2.8-3.1-4.1c1.9-0.5,3.6-1.5,5.1-2.7c1.2-0.9,2.3-2,3.3-3.2v-5.7H160
			c0.8,0.1,1.6,0.3,2.5,0.4c0.3,0.1,0.4,0.2,0.4,0.3s-0.2,0.3-0.5,0.5l-0.5,1.4c0.8,0.6,1.5,1.3,2.1,2.1c-0.8,1-1.6,2.1-2.3,3.2
			c-0.4-0.6-0.9-1.1-1.4-1.6c-0.6,1.1-1.2,2.1-1.9,3.1c-0.8-1.2-1.7-2.3-2.7-3.2c0.7-0.8,1.3-1.8,1.7-2.8c0.5-1.1,0.8-2.2,1.1-3.4
			l-1.7,0.1c0-0.8,0.1-1.6,0.1-2.2s-0.1-1.5-0.1-2.2C157.7,131,158.6,131,159.4,131z M169.1,140c0.4-0.5,0.8-1.1,1.2-1.7
			c0.5-1,1-2,1.2-3.1h-2.4V140z"/>
		<path class="st3" d="M208.5,141.2H220c0.2,0,0.4,0,0.6-0.1v1.9l-0.3-0.1c1,0.7,1.9,1.6,2.7,2.5c-0.6,0.3-1.2,0.7-1.8,1.1h2.3
			c0.3,0,0.5,0,0.7-0.1v2.1c-0.2-0.1-0.5-0.1-0.7-0.1h-7.3v0.6h7.9c0.3,0,0.6,0,0.9-0.1v2.3c-0.3-0.1-0.6-0.1-0.9-0.1h-19.8
			c-0.3,0-0.6,0-0.9,0.1V149c0.3,0.1,0.6,0.1,0.9,0.1h7.5v-0.6h-6.8c-0.2,0-0.5,0-0.7,0.1v-2.1c0.2,0.1,0.5,0.1,0.7,0.1h6.8V146
			c-1.9,0-3.7,0.1-5.4,0.1c-0.1,0.1-0.2,0.2-0.3,0.2s-0.2,0-0.2-0.2V145c0-0.4,0-0.9-0.1-1.3h2.7l0.6-0.7h-0.8c-0.2,0-0.5,0-0.7,0.1
			v-1.9C208,141.2,208.3,141.2,208.5,141.2z M205.5,138.7h17.7c0.6,0,1.2,0,1.9-0.1c-0.1,0.4-0.1,0.7-0.1,1.1v1.5
			c0,0.6,0,1.2,0.1,1.9c-0.6,0-1.2-0.1-1.9-0.1s-1.2,0-1.9,0.1c0.1-0.6,0.1-1.2,0.1-1.9v-0.4h-14.1v0.4c0,0.6,0.1,1.2,0.2,1.9
			c-0.7,0-1.3-0.1-1.9-0.1s-1.3,0-1.9,0.1c0-0.6,0.1-1.2,0.1-1.9v-1.5c0-0.4,0-0.7-0.1-1.1C204.3,138.7,204.9,138.7,205.5,138.7
			L205.5,138.7z M212,130.2c0-0.4-0.1-0.7-0.1-1.1c1.6,0.2,3.2,0.3,4.7,0.2c0.3,0,0.4,0.1,0.4,0.2c0,0.2-0.1,0.4-0.3,0.4
			c-0.1,0.1-0.1,0.1-0.2,0.2h8.1v2.1c-0.2-0.1-0.5-0.1-0.7-0.1h-7.6v0.4h7.9v1.9c-0.4-0.1-0.7-0.1-1.1-0.1h-17.7
			c-0.4,0-0.7,0-1.1,0.1v-1.9h7.6v-0.4h-7.4c-0.2,0-0.5,0-0.7,0.1v-2.1H212z M222.5,135.1c-0.1,0.2-0.1,0.4-0.1,0.6v1.9
			c0,0.2,0,0.4,0.1,0.7h-16.3c0.1-0.2,0.1-0.4,0.1-0.7v-1.9c0-0.2,0-0.4-0.1-0.6H222.5z M218.1,136.4h-7.7v0.6h7.7V136.4z
			 M216.6,143.2c0.1,0,0.2-0.1,0.4-0.2h-4.1l-0.6,0.7c1.4,0,3,0,5-0.1C217.1,143.5,216.9,143.3,216.6,143.2L216.6,143.2z
			 M216.3,146.6h4.6l-0.7-0.7l-3.8,0.1V146.6z"/>
		<path class="st3" d="M232,137.7c-0.8,0.9-1.5,1.9-2.1,3c-0.9-0.8-2-1.5-3.1-2c0.8-0.9,1.5-1.9,2.1-3
			C230,136.3,231.1,136.9,232,137.7z M232.2,142.4c-0.3,2.9-0.9,5.7-1.7,8.5c0,0.4-0.2,0.6-0.4,0.6c-0.1,0-0.2-0.1-0.3-0.2
			c-0.9-0.7-1.9-1.2-2.9-1.8c1.1-2.9,1.8-6,2.1-9.1C230,141.3,231.1,141.9,232.2,142.4L232.2,142.4z M231.9,131.4
			c0.3-0.4,0.7-0.9,0.9-1.4c0.1,0.1,0.3,0.2,0.4,0.3c0.3-0.4,0.6-0.9,0.9-1.4c0.5,0.4,1,0.8,1.5,1.1c0.1,0,0.2,0.1,0.2,0.2
			s-0.1,0.1-0.2,0.1c-0.3,0.4-0.5,0.9-0.8,1.2l0.2,0.3c0.3-0.4,0.7-0.8,1-1.2c0.3,0.3,0.6,0.5,1,0.8h4.8c0.1-0.1,0.2-0.2,0.3-0.3
			c-0.1,0-0.2,0-0.4-0.1h-3.7c-0.2,0-0.4,0-0.6,0.1v-1.8c0.2,0.1,0.4,0.1,0.6,0.1h3.7c0.2,0,0.4,0,0.5-0.1v1.4
			c0.2-0.3,0.5-0.7,0.7-1c0.2,0.1,0.3,0.2,0.5,0.4c0.5-0.4,0.9-0.9,1.3-1.4c0.5,0.4,1,0.8,1.6,1.1c0.1,0,0.2,0.1,0.2,0.2
			c0,0.1-0.1,0.1-0.3,0.2l-1.1,1.2c0.1,0.1,0.3,0.3,0.4,0.4c0.4-0.5,0.8-1,1.2-1.5c0.6,0.5,1.2,0.9,1.8,1.2c0.1,0.1,0.2,0.1,0.2,0.2
			c0,0.1-0.1,0.1-0.3,0.2c-0.5,0.5-1,1-1.5,1.4c0.5-0.1,1-0.2,1.5-0.3c0.4,0.9,0.7,1.9,0.9,2.9c-0.5,0.1-1.1,0.3-1.8,0.6
			c0-0.2-0.1-0.5-0.1-0.7c-0.3,0.1-0.5,0.1-0.7,0.1v1c0.4-0.1,0.8-0.3,1.2-0.5c0.5,1,0.9,2,1.3,3c-0.6,0.2-1.2,0.5-1.8,0.8
			c-0.2-0.7-0.5-1.3-0.7-1.9v1.2c0,0.4,0,0.8,0.1,1.2c-0.6-0.1-1.1-0.1-1.5-0.1c-0.5,0-1,0-1.5,0.1c0-0.4,0.1-0.8,0.1-1.2v-0.2
			c-0.2,0.3-0.4,0.7-0.6,1l-0.9-0.4v0.8h-5.1v-1.1c-0.3,0.1-0.6,0.3-0.8,0.4c-0.2-0.7-0.4-1.3-0.7-1.9v1.6c0,0.3,0,0.6,0.1,0.9h-2.5
			c0.1-0.3,0.1-0.6,0.1-0.9v-0.7c-0.2,0.5-0.4,0.9-0.6,1.4c-0.6-0.3-1.2-0.5-1.8-0.7c0.5-0.9,0.9-1.8,1.2-2.8
			c0.4,0.2,0.8,0.4,1.2,0.6v-0.8c-0.5,0.1-1,0.2-1.5,0.2c-0.1,0.1-0.2,0.2-0.3,0.2s-0.2-0.1-0.2-0.2v-1c0-0.4,0-0.8-0.1-1.2h0.5
			c0.4-0.3,0.8-0.7,1.1-1c-0.3-0.4-0.7-0.8-1-1.1c-0.7,0.8-1.3,1.7-1.8,2.6c-1-0.9-2.2-1.7-3.4-2.4c0.8-0.9,1.6-1.9,2.2-3
			C230.1,130.3,231,130.8,231.9,131.4L231.9,131.4z M233.7,141.2H246c0.7,0,1.4,0,2.1-0.1c-0.1,0.3-0.1,0.7-0.1,1v2.5
			c0,0.3,0,0.7,0.1,1h-11.8c0,0.2-0.1,0.3-0.1,0.5h9.8c0.9,0,1.8,0,2.7-0.1c-0.3,0.4-0.5,0.9-0.7,1.4c-0.6,1.9-1.5,3-2.4,3.4
			c-2,0.5-4.1,0.7-6.1,0.6c-0.4-0.9-0.8-1.8-1.2-2.6c1,0.1,1.7,0.1,2,0.1c0.9,0,1.7,0,2.6-0.1c0.3-0.1,0.6-0.3,0.8-0.5h-8
			c-0.1,0.4-0.3,0.8-0.5,1.2c-1.2-0.4-2.5-0.7-3.7-0.8c0.4-0.8,0.8-1.6,1-2.4c0.2-0.8,0.3-1.6,0.4-2.4v-0.1h11.1v-0.6h-11.3v-2
			C232.9,141.1,233.3,141.2,233.7,141.2L233.7,141.2z M236,134c-0.2,0.2-0.4,0.4-0.6,0.6c0.2,0,0.4,0,0.6-0.1c0.1,0,0.1,0,0.2,0
			C236.1,134.4,236,134.2,236,134L236,134z M237.4,136.9l-0.5,0.2c0-0.3-0.1-0.6-0.2-0.9l-0.9,0.1v0.8c0.3-0.1,0.6-0.2,0.8-0.4
			c0.3,0.4,0.5,0.8,0.7,1.2L237.4,136.9z M243.2,136.9c0.3,0.2,0.6,0.3,0.9,0.4v-0.9l-1.1,0.1c-0.1,0.1-0.2,0.2-0.3,0.2
			s-0.1-0.1-0.1-0.2v-0.9c0-0.4,0-0.7-0.1-1.1h0.6c0.2-0.2,0.4-0.4,0.6-0.5c-0.4-0.4-0.8-0.8-1.3-1.2H237l0,0
			c-0.3,0.4-0.6,0.7-0.9,1c0.3-0.1,0.7-0.1,1-0.2c0.2,0.5,0.4,1.1,0.5,1.6v-0.3c0.2,0.1,0.4,0.1,0.5,0.1h3.6c0.2,0,0.4,0,0.5-0.1
			v1.8c-0.2-0.1-0.4-0.1-0.5-0.1H238c0,0.1,0,0.1,0,0.2c-0.2,0.1-0.4,0.1-0.6,0.2c0.3,0.1,0.7,0.1,1,0.1h3.1c0.3,0,0.7,0,1-0.1v1.3
			C242.7,137.8,242.9,137.4,243.2,136.9L243.2,136.9z M242.4,133.2v1.4h-4.9v-1.4L242.4,133.2z M240.5,138.6h-1v0.7h1V138.6z
			 M247,133.7c-0.3,0.3-0.5,0.5-0.7,0.7c0.2,0,0.5,0,0.8,0h0.2C247.1,134.2,247,133.9,247,133.7z"/>
		<path class="st3" d="M257.3,130.1c0.3,0.1,0.5,0.2,0.5,0.3s-0.1,0.2-0.4,0.4c-0.6,1.3-1.3,2.5-2.1,3.6c0.1,0.2,0.3,0.4,0.4,0.5
			c0.8-1.2,1.6-2.4,2.4-3.7c0.6,0.5,1.3,1,2,1.4c0-0.3,0-0.6,0-0.9c0-0.6,0-1.3-0.1-1.9c0.7,0.1,1.5,0.2,2.2,0.2h8.2
			c0.7,0,1.5-0.1,2.2-0.2c0,0.7-0.1,1.3-0.1,1.9s0,1.3,0.1,1.9c-0.7-0.1-1.4-0.1-2.2-0.1h-0.8c0.9,0.4,1.8,0.8,2.8,1
			c0.2,0,0.3,0.1,0.3,0.2s-0.1,0.2-0.4,0.3c-0.4,0.9-0.8,1.6-1.2,2.3c0.7,0.8,1.3,1.7,1.9,2.6c-1,0.4-2,0.8-3,1.4h0.9
			c0.5,0,1,0,1.6-0.1c-0.1,0.7-0.1,1.4-0.1,2s0,1.4,0.1,2.1c-0.5-0.1-1-0.2-1.6-0.2h-2v1.5h2.3c0.6,0,1.1,0,1.7-0.1
			c-0.1,0.8-0.1,1.5-0.1,2.1s0,1.4,0.1,2.2c-0.5-0.1-1.1-0.2-1.7-0.2h-9.6c-0.6,0-1.1,0.1-1.7,0.2c0-0.9,0.1-1.6,0.1-2.2s0-1,0-1.4
			c-0.5,0.1-1,0.3-1.5,0.5c-0.1-1.6-0.2-3-0.4-4.4c0.7-0.1,1.4-0.3,2.1-0.6c0.1,1.3,0.2,2.6,0.3,3.8c0.4,0,0.7,0,1.1,0h2.7v-1.5
			h-1.9c-0.5,0-1,0.1-1.6,0.2c0-0.8,0.1-1.5,0.1-2.1s0-1.4-0.1-2c0.1,0,0.3,0,0.5,0c-0.4-1.4-0.9-2.8-1.5-4.1
			c0.7-1.1,1.3-2.3,1.7-3.6c-0.3,0-0.6,0-0.9,0c-1.2,1.5-2.3,2.8-3.4,4.1c0.7-0.2,1.5-0.5,2.1-0.9c0.7,1.6,1.2,3.2,1.5,4.9
			c-0.8,0.3-1.6,0.6-2.3,1.1c-0.1-0.4-0.1-0.7-0.2-1.1c-0.2,0-0.4,0-0.5,0.1v7.9c0,0.5,0.1,0.9,0.2,1.4c-0.7,0-1.4-0.1-2-0.1
			s-1.2,0-1.8,0.1c0.1-0.5,0.1-0.9,0.1-1.4v-7.6c-0.9,0.1-1.8,0.2-2.6,0.3c-0.1,0.1-0.2,0.2-0.4,0.3c-0.2,0-0.3-0.1-0.3-0.3
			c0-0.5,0.1-1,0.1-1.6c0-0.6-0.1-1.2-0.2-1.8h1.3c0.4-0.4,0.8-0.9,1.1-1.3c-0.8-1.3-1.7-2.5-2.8-3.6c0.8-0.9,1.5-1.9,2.1-3l0.5,0.5
			c0.5-0.8,0.9-1.8,1.2-2.7C255.3,129.5,256.3,129.9,257.3,130.1z M253.6,143.4c0.2,0,0.3,0.1,0.3,0.2c0,0.2-0.1,0.4-0.3,0.6
			c0,2.2,0,4.4-0.3,6.6c-0.9-0.3-1.8-0.5-2.8-0.6c0.4-1.4,0.6-2.8,0.6-4.2c0-0.9-0.1-1.9-0.2-2.8C252,143.3,252.8,143.4,253.6,143.4
			z M257,138c-0.3,0.4-0.5,0.7-0.8,1c0.4,0,0.8-0.1,1.2-0.1C257.2,138.6,257.1,138.3,257,138z M265.4,141.4c-0.4-1.4-1-2.7-1.6-4
			c0.7-1.2,1.2-2.5,1.6-3.8h-3.5c0.8,0.4,1.7,0.8,2.6,1c0.2,0,0.3,0.1,0.3,0.2s-0.1,0.1-0.4,0.2c-0.4,0.8-0.9,1.5-1.5,2.2
			c0.6,1,1.2,2.1,1.7,3.2c-0.7,0.3-1.4,0.6-2.1,0.9L265.4,141.4z M269.7,141.4c-0.5-1.4-1.1-2.7-1.9-4c0.7-1.2,1.2-2.5,1.5-3.8h-3.6
			c0.9,0.4,1.8,0.8,2.7,1c0.2,0,0.3,0.1,0.3,0.2s-0.1,0.1-0.4,0.2c-0.4,0.8-0.8,1.6-1.3,2.4c0.6,0.8,1.2,1.7,1.7,2.7
			c-1,0.3-1.9,0.8-2.8,1.3L269.7,141.4z"/>
		<path class="st3" d="M280,137.9c-0.9,1.1-1.7,2.2-2.4,3.4c-1.1-0.9-2.3-1.7-3.5-2.4c0.9-1,1.6-2.1,2.3-3.2
			C277.7,136.3,278.9,137,280,137.9z M280.6,131.9c0-0.4,0-0.8-0.1-1.3c0.4,0.1,0.9,0.1,1.3,0.1h4.4c0-0.5-0.1-1-0.1-1.6
			c1.5,0.2,3,0.3,4.5,0.2c0.3,0,0.4,0.1,0.4,0.2c0,0.2-0.1,0.3-0.2,0.4c-0.2,0.2-0.3,0.4-0.3,0.7h4.5c0.4,0,0.9,0,1.3-0.1
			c-0.1,0.5-0.1,1.1-0.1,1.6c0,0.6,0,1.2,0.1,1.8c-0.2-0.1-0.5-0.1-0.8-0.1c0.1,0.6,0.4,1.2,0.7,1.7c0.1,0.1,0.1,0.2,0.1,0.3
			c0,0.1-0.1,0.2-0.1,0.2c0,0,0,0,0,0l-0.4-0.1c-0.2,0.1-0.3,0.2-0.5,0.3c0.1,0.5,0.2,1,0.4,1.5c0.2,0.6,0.5,1.2,1,1.7
			c-0.5,0.7-0.9,1.4-1.2,2.1c0.2,0,0.3,0.1,0.3,0.2c0,0.1-0.1,0.3-0.2,0.4c-0.2,0.2-0.2,0.4-0.2,0.7v8.6h-3.6v-2h-8
			c-0.4,0.9-1,1.7-1.7,2.4c-0.9-0.9-1.8-1.7-2.9-2.4c0.6-0.5,1.1-1.1,1.4-1.8c0.4-1.1,0.6-2.3,0.6-3.5c0-1,0-1.8-0.1-2.5
			c-0.1,0.1-0.2,0.2-0.3,0.3c-0.6-0.7-1.2-1.3-1.8-1.9c0.6-0.4,1.1-1,1.4-1.6c0.2-0.3,0.3-0.7,0.3-1.1l-0.6,0.1
			c0.1-0.5,0.1-0.9,0.1-1.4c0-0.4,0-0.9-0.1-1.3c0.4,0.1,0.9,0.1,1.3,0.1h2.7l-0.8-0.5c0.4-0.1,0.7-0.2,1-0.4h-2.2
			c-0.4,0-0.9,0.1-1.3,0.2c0-0.6,0.1-1.1,0.1-1.5c-0.8,1-1.5,2.1-2.2,3.1c-1.2-1.1-2.6-2.1-4-2.9c0.9-1,1.8-2.1,2.5-3.3
			C278.3,130.2,279.5,131,280.6,131.9L280.6,131.9z M280.1,143.2c-0.4,2.5-1,5.1-1.9,7.5c0,0.4-0.1,0.6-0.3,0.6s-0.2-0.1-0.3-0.2
			c-1-0.7-2.1-1.4-3.2-1.9c1.2-2.5,1.9-5.2,2.3-8C277.8,141.9,278.9,142.6,280.1,143.2L280.1,143.2z M282.1,141.4
			c0-0.3-0.1-0.6-0.2-0.9c-0.2,0.3-0.4,0.6-0.7,0.9C281.5,141.4,281.8,141.4,282.1,141.4L282.1,141.4z M282.6,139.3h0.4
			c0.1,0,0.2-0.1,0.3-0.1c0.1-0.6,0.2-1.3,0.2-1.9H283C282.9,137.9,282.8,138.6,282.6,139.3L282.6,139.3z M291.6,145.6h-7.3
			c0,0.2,0,0.4,0,0.6h7.4V145.6z M291.5,141.4c-0.4,0.1-0.7,0.2-1.1,0.3c-0.1,0.1-0.2,0.2-0.3,0.2s-0.2,0-0.2-0.2v-1.1
			c0-0.4,0-0.8-0.1-1.2h0.5c0-0.2,0-0.4,0-0.6v-2.3c-0.3,0.2-0.5,0.4-0.8,0.6v3.9c0,0.4,0,0.9,0.1,1.3c-0.6-0.1-1.2-0.1-1.7-0.1
			s-1.1,0-1.7,0.1c0.1-0.4,0.1-0.9,0.1-1.3v-4c-0.1-0.2-0.3-0.3-0.4-0.5c-0.1,3-0.4,4.6-0.9,4.7c-0.1,0.1-0.3,0.1-0.4,0.2
			c0.2,0,0.4,0.1,0.4,0.2s-0.1,0.3-0.4,0.4c-0.2,0.1-0.3,0.3-0.3,0.5h7.2C291.5,142.2,291.5,141.9,291.5,141.4L291.5,141.4z
			 M289.2,133.8h-2.4c0.5,0.4,0.9,0.9,1.2,1.3C288.5,134.7,288.9,134.3,289.2,133.8L289.2,133.8z M294.8,133.8h-3.3
			c0.2,0.1,0.4,0.3,0.7,0.4c0.1,0.1,0.2,0.2,0.2,0.3s-0.1,0.2-0.3,0.2l-0.4,0.4C292.7,134.8,293.8,134.4,294.8,133.8L294.8,133.8z
			 M295,141.6c-0.3-0.3-0.5-0.6-0.7-0.9c-1,0.3-1.9,0.5-2.8,0.7C292.7,141.6,293.8,141.6,295,141.6L295,141.6z M293.2,137.3
			c-0.1,0.1-0.3,0.1-0.4,0.2v1.2c0.2-0.1,0.5-0.1,0.7-0.2C293.4,138.2,293.2,137.8,293.2,137.3L293.2,137.3z"/>
		<path class="st3" d="M308,144.4c0.3,0,0.5,0.1,0.5,0.2c-0.1,0.3-0.2,0.5-0.5,0.8c-0.1,1.4-0.7,2.8-1.7,3.8
			c-0.9,0.9-2.6,1.7-5.2,2.4c-0.9-1.4-2-2.7-3.1-3.8c1.5-0.1,3-0.5,4.3-1.2c0.9-0.5,1.4-1.4,1.3-2.4
			C305.1,144.4,306.6,144.4,308,144.4z M300.5,140.1H318c0.7,0,1.4,0,2.1-0.1c0,0.6-0.1,1.2-0.1,1.8v1.7c0,0.6,0.1,1.1,0.2,1.7
			c-0.8,0-1.6-0.1-2.2-0.1s-1.1,0-1.7,0.1c1.2,0.5,2.5,0.9,3.9,1.1c-0.1,1.3-0.5,2.6-1.4,3.7c-0.7,0.7-1.7,1-2.7,1h-4.5
			c-1.6,0-2.5-0.6-2.5-1.6v-2.7c0-0.8-0.1-1.7-0.2-2.5c1.4,0.2,2.9,0.3,4.3,0.3c0.3,0,0.5,0.1,0.6,0.3c0,0.2-0.1,0.3-0.2,0.4
			c-0.2,0.2-0.3,0.4-0.3,0.7v0.5c0,0.4,0.4,0.6,1.1,0.6h0.5c0.3,0,0.6-0.1,0.8-0.4c0.2-0.1,0.3-0.6,0.3-1.3h-0.1
			c0-0.5,0.1-1.1,0.1-1.6h-13.4c0,0.5,0.1,1.1,0.2,1.6c-0.9,0-1.6-0.1-2.2-0.1s-1.4,0-2.1,0.1c0-0.6,0.1-1.1,0.1-1.7v-1.7
			c0-0.6,0-1.2-0.1-1.8C299,140.1,299.7,140.1,300.5,140.1L300.5,140.1z M311.5,129.6c0.3,0,0.5,0.1,0.5,0.2c0,0.2-0.1,0.4-0.3,0.4
			c-0.2,0.1-0.3,0.3-0.3,0.5h6.5c0.7,0,1.3,0,2-0.1c-0.1,0.6-0.1,1.2-0.1,1.8c0,0.6,0,1.2,0.1,1.8c-0.6,0-1.3-0.1-2-0.1h-17.4
			c-0.6,0-1.3,0.1-2,0.1c0-0.7,0.1-1.3,0.1-1.8s0-1.2-0.1-1.8c0.7,0.1,1.4,0.1,2,0.1h6.4c0-0.4,0-0.9-0.1-1.4
			C308.3,129.5,309.9,129.6,311.5,129.6L311.5,129.6z M317.6,134.7c-0.1,0.3-0.1,0.7-0.1,1v2.7c0,0.4,0,0.7,0.1,1.1
			c-0.8,0-1.6-0.1-2.3-0.1h-12.6c-0.8,0-1.6,0-2.3,0.1c0.1-0.4,0.1-0.7,0.1-1.1v-2.7c0-0.3,0-0.7-0.1-1H317.6z M313.1,136.7h-8.2
			v0.7h8.2V136.7z"/>
		<path class="st3" d="M324.7,131.4h1.5c0-0.6,0-1.3-0.1-2c1.4,0.2,2.8,0.3,4.1,0.2c0.3,0,0.4,0.1,0.4,0.2s-0.1,0.2-0.3,0.4
			c-0.2,0.2-0.3,0.4-0.3,0.7v0.6h1.3c0.6,0,1.1,0,1.7-0.1c-0.1,0.7-0.1,1.3-0.1,2c0,0.7,0,1.5,0.1,2.2c-0.5-0.1-1.1-0.2-1.7-0.2H330
			v1h1.5c0.6,0,1.1,0,1.7-0.1c-0.1,0.7-0.1,1.3-0.1,2c0,0.7,0,1.5,0.1,2.2c-0.5-0.1-1.1-0.2-1.7-0.2h-0.8v1h0.1
			c0.8,0,1.6-0.1,2.4-0.2c-0.1,1.4-0.1,2.8,0,4.2c-0.7-0.1-1.5-0.1-2.4-0.1h-0.1v1.1c1.7,0.6,3.4,0.9,5.2,0.9c2.7,0,5.5-0.1,8.2-0.5
			c-0.4,1.4-0.7,2.8-0.9,4.3l-7.6,0.2c-3.4,0-5.8-0.4-7.2-1c-1.2-0.6-2.2-1.3-3.2-2.2c-0.3,1.2-0.6,2.3-1,3.4
			c-0.9-0.8-1.8-1.6-2.8-2.3c0.9-2.7,1.5-5.6,1.8-8.4c1,0.5,2,0.8,3.1,1c0.2,0.1,0.3,0.1,0.3,0.3s-0.1,0.2-0.4,0.4
			c0,0.3-0.1,0.6-0.1,0.9c0.2,0.2,0.4,0.4,0.6,0.6v-3.6H324c-0.6,0-1.1,0.1-1.7,0.2c0-0.8,0.1-1.6,0.1-2.2s0-1.4-0.1-2
			c0.6,0.1,1.1,0.1,1.7,0.1h2.2v-1h-1.5c-0.6,0-1.1,0.1-1.7,0.2c0-0.8,0.1-1.6,0.1-2.2s0-1.4-0.1-2
			C323.6,131.3,324.1,131.4,324.7,131.4z M335.7,130.1h5.5c0.7,0,1.3,0,2-0.1c-0.1,0.7-0.1,1.4-0.1,2.1v5.9c0,0.7,0,1.4,0.1,2.1
			c-0.7,0-1.4-0.1-2-0.1h-3.6v1.3c0,0.8,0.3,1.2,0.8,1.2h1.3c0.2,0,0.3-0.1,0.3-0.5c0.1-0.5,0.1-1.1,0.1-1.6
			c1.2,0.6,2.5,1.1,3.9,1.4c-0.1,1.2-0.4,2.4-1,3.4c-0.6,0.9-2.2,1.3-4.7,1.3h-2.1c-1.5,0-2.3-0.5-2.4-1.7v-12.8
			c0-0.7,0-1.4-0.1-2.1C334.3,130,335,130.1,335.7,130.1L335.7,130.1z M337.6,136h1.6v-1.8h-1.6V136L337.6,136z"/>
		<path class="st3" d="M348.9,131h4.9c0-0.6-0.1-1.1-0.1-1.8c1.7,0.2,3.4,0.3,5.2,0.3c0.3,0,0.5,0.1,0.5,0.3c0,0.2-0.1,0.4-0.3,0.4
			c-0.2,0.2-0.4,0.5-0.4,0.8h5.6c0.9,0,1.7-0.1,2.6-0.2c-0.1,0.8-0.1,1.5-0.1,2.2s0,1.4,0.1,2.2c-0.8-0.1-1.6-0.1-2.6-0.1h-2.8
			c1,0.2,2.2,0.4,3.6,0.6c0.3,0.1,0.4,0.2,0.4,0.3s-0.2,0.3-0.5,0.4c-0.2,0.6-0.5,1.2-0.7,1.7c1,0.7,2,1.4,3.2,2.2
			c-0.8,1.3-1.4,2.6-1.9,4c-0.9-1.1-2-2-3.1-2.9c-0.3,0.4-0.6,0.9-0.9,1.3c1.9,1.5,4,2.8,6.2,3.9c-0.9,1.3-1.8,2.6-2.7,4.2
			c-2.2-1.5-4.4-3.1-6.4-4.9v3.5c0,0.7,0.1,1.3,0.2,2c-0.9-0.1-1.7-0.2-2.6-0.2c-0.9,0-1.7,0.1-2.6,0.2c0.1-0.7,0.2-1.3,0.2-2V147
			c-1.7,1.5-3.5,2.8-5.4,3.9c-0.9-1.4-1.9-2.8-3.1-4.1c1.9-0.5,3.6-1.5,5.1-2.7c1.2-0.9,2.3-2,3.3-3.2v-5.7h-4.4
			c0.8,0.1,1.6,0.3,2.5,0.4c0.3,0.1,0.4,0.2,0.4,0.3s-0.2,0.3-0.5,0.5c-0.2,0.5-0.3,1-0.5,1.4c0.8,0.6,1.5,1.3,2.2,2.1
			c-0.8,1-1.6,2.1-2.3,3.2c-0.4-0.6-0.9-1.1-1.4-1.6c-0.6,1.1-1.2,2.1-1.9,3.1c-0.8-1.2-1.7-2.3-2.7-3.2c0.7-0.8,1.3-1.8,1.7-2.8
			c0.5-1.1,0.8-2.2,1.1-3.4l-1.7,0.1c0-0.8,0.1-1.6,0.1-2.2s0-1.5-0.1-2.2C347.2,131,348.1,131,348.9,131z M358.6,140
			c0.4-0.5,0.8-1.1,1.2-1.7c0.5-1,1-2,1.2-3.1h-2.4V140z"/>
	</g>
</g>
</svg>
